HIERARCHY
ROOT Hips
{
	OFFSET 0.000000 0.000000 0.000000
	CHANNELS 6 Xposition Yposition Zposition Zrotation Yrotation Xrotation 
	JOINT LHipJoint
	{
		OFFSET 0.000000 0.000000 0.000000
		CHANNELS 3 Zrotation Yrotation Xrotation
		JOINT LeftUpLeg
		{
			OFFSET 1.363060 -1.794630 0.839290
			CHANNELS 3 Zrotation Yrotation Xrotation
			JOINT LeftLeg
			{
				OFFSET 2.448110 -6.726130 0.000000
				CHANNELS 3 Zrotation Yrotation Xrotation
				JOINT LeftFoot
				{
					OFFSET 2.562200 -7.039590 0.000000
					CHANNELS 3 Zrotation Yrotation Xrotation
					JOINT LeftToeBase
					{
						OFFSET 0.157640 -0.433110 2.322550
						CHANNELS 3 Zrotation Yrotation Xrotation
						End Site
						{
							OFFSET 0.000000 0.000000 0.000000
						}
					}
				}
			}
		}
	}
	JOINT RHipJoint
	{
		OFFSET 0.000000 0.000000 0.000000
		CHANNELS 3 Zrotation Yrotation Xrotation
		JOINT RightUpLeg
		{
			OFFSET -1.305520 -1.794630 0.839290
			CHANNELS 3 Zrotation Yrotation Xrotation
			JOINT RightLeg
			{
				OFFSET -2.542530 -6.985550 0.000000
				CHANNELS 3 Zrotation Yrotation Xrotation
				JOINT RightFoot
				{
					OFFSET -2.568260 -7.056230 0.000000
					CHANNELS 3 Zrotation Yrotation Xrotation
					JOINT RightToeBase
					{
						OFFSET -0.164730 -0.452590 2.363150
						CHANNELS 3 Zrotation Yrotation Xrotation
						End Site
						{
							OFFSET 0.000000 0.000000 0.000000
						}
					}
				}
			}
		}
	}
	JOINT LowerBack
	{
		OFFSET 0.000000 0.000000 0.000000
		CHANNELS 3 Zrotation Yrotation Xrotation
		JOINT Spine
		{
			OFFSET 0.028270 2.035590 -0.193380
			CHANNELS 3 Zrotation Yrotation Xrotation
			JOINT Spine1
			{
				OFFSET 0.056720 2.048850 -0.042750
				CHANNELS 3 Zrotation Yrotation Xrotation
				JOINT Neck
				{
					OFFSET 0.000000 0.000000 0.000000
					CHANNELS 3 Zrotation Yrotation Xrotation
					JOINT Neck1
					{
						OFFSET -0.054170 1.746240 0.172020
						CHANNELS 3 Zrotation Yrotation Xrotation
						JOINT Head
						{
							OFFSET 0.104070 1.761360 -0.123970
							CHANNELS 3 Zrotation Yrotation Xrotation
							End Site
							{
								OFFSET 0.000000 0.000000 0.000000
							}
						}
					}
				}
				JOINT LeftShoulder
				{
					OFFSET 0.000000 0.000000 0.000000
					CHANNELS 3 Zrotation Yrotation Xrotation
					JOINT LeftArm
					{
						OFFSET 3.362410 1.200890 -0.311210
						CHANNELS 3 Zrotation Yrotation Xrotation
						JOINT LeftForeArm
						{
							OFFSET 4.983000 -0.000000 -0.000000
							CHANNELS 3 Zrotation Yrotation Xrotation
							JOINT LeftHand
							{
								OFFSET 3.483560 -0.000000 -0.000000
								CHANNELS 3 Zrotation Yrotation Xrotation
								JOINT LeftFingerBase
								{
									OFFSET 0.000000 0.000000 0.000000
									CHANNELS 3 Zrotation Yrotation Xrotation
									JOINT LeftHandIndex1
									{
										OFFSET 0.715260 -0.000000 -0.000000
										CHANNELS 3 Zrotation Yrotation Xrotation
										End Site
										{
											OFFSET 0.000000 0.000000 0.000000
										}
									}
								}
								JOINT LThumb
								{
									OFFSET 0.000000 0.000000 0.000000
									CHANNELS 3 Zrotation Yrotation Xrotation
									End Site
									{
										OFFSET 0.000000 0.000000 0.000000
									}
								}
							}
						}
					}
				}
				JOINT RightShoulder
				{
					OFFSET 0.000000 0.000000 0.000000
					CHANNELS 3 Zrotation Yrotation Xrotation
					JOINT RightArm
					{
						OFFSET -3.136600 1.374050 -0.404650
						CHANNELS 3 Zrotation Yrotation Xrotation
						JOINT RightForeArm
						{
							OFFSET -5.241900 -0.000000 -0.000000
							CHANNELS 3 Zrotation Yrotation Xrotation
							JOINT RightHand
							{
								OFFSET -3.444170 -0.000000 -0.000000
								CHANNELS 3 Zrotation Yrotation Xrotation
								JOINT RightFingerBase
								{
									OFFSET 0.000000 0.000000 0.000000
									CHANNELS 3 Zrotation Yrotation Xrotation
									JOINT RightHandIndex1
									{
										OFFSET -0.622530 -0.000000 -0.000000
										CHANNELS 3 Zrotation Yrotation Xrotation
										End Site
										{
											OFFSET 0.000000 0.000000 0.000000
										}
									}
								}
								JOINT RThumb
								{
									OFFSET 0.000000 0.000000 0.000000
									CHANNELS 3 Zrotation Yrotation Xrotation
									End Site
									{
										OFFSET 0.000000 0.000000 0.000000
									}
								}
							}
						}
					}
				}
			}
		}
	}
}
MOTION
Frames: 12
Frame Time: 0.008333
10.769917 17.308929 -43.340412 -4.511480 -8.896514 5.356125 14.435459 5.013118 3.161720 -23.423905 -15.320983 -42.192530 2.658577 14.780674 37.731497 0.268641 2.658371 -11.758561 1.248900 -7.085400 -19.968700 -19.892582 -7.536642 -5.070782 49.397736 -1.246886 12.270768 0.589659 -2.364311 13.254670 -1.797704 8.668839 -16.598339 -1.029800 6.454900 -18.110200 8.717905 2.251407 3.486940 0.726640 2.692948 -2.008868 -1.183477 1.961410 9.019134 -9.152102 -2.316735 -19.292788 -0.905780 -1.205563 9.842579 2.093900 -1.886900 12.010000 -5.280163 -5.233195 0.379176 -76.865175 4.093590 33.130122 13.525690 -24.148002 -4.029637 -0.712806 -1.818667 0.945328 13.148508 30.276804 7.446700 -7.125000 0.000000 0.000000 -21.557100 61.505300 -8.891100 5.020341 5.122976 1.228642 70.124446 -6.197445 44.540429 -27.031415 34.987888 -9.908740 -0.575717 -0.236723 -10.668824 -21.346002 18.527920 -6.936400 7.125000 0.000000 0.000000 4.831200 -10.094400 3.924000 
10.773264 17.313845 -43.251300 -4.552665 -8.940840 5.354956 14.392977 4.989822 3.224702 -23.428176 -15.371818 -42.388104 2.530888 14.626553 37.186488 0.270331 2.585380 -11.550769 0.980600 -6.303600 -17.667900 -19.860048 -7.500611 -5.244156 49.145670 -1.890808 13.250252 0.746938 -1.865960 12.021523 -1.680500 9.014557 -15.601516 -0.344200 3.769800 -10.430000 8.594457 2.137931 3.505554 0.823701 2.543719 -2.077452 -0.866771 1.837272 8.685845 -9.326392 -2.113666 -18.478252 -0.925389 -0.928347 9.656646 2.148000 -1.769400 11.666700 -5.247600 -5.172446 0.341193 -77.459853 4.901401 32.409941 13.510321 -24.173269 -3.997522 -0.685590 -1.751055 1.681955 13.317491 29.110423 7.260200 -7.125000 0.000000 0.000000 -20.423000 60.408800 -7.866700 5.025132 5.058838 1.244328 69.555125 -6.517195 45.522362 -27.126062 35.083792 -9.941317 -0.566390 -0.204254 -11.014774 -20.885668 18.013703 -6.582700 7.125000 0.000000 0.000000 5.086600 -10.736700 4.066400 
10.772218 17.308406 -43.175577 -4.763651 -8.971568 5.413878 14.374454 4.964234 3.249221 -23.167939 -15.450513 -42.682418 2.445687 14.523798 36.788535 0.397194 1.830889 -11.641832 0.620200 -5.039900 -14.022300 -19.829449 -7.470054 -5.379566 49.150541 -2.395655 13.956808 0.875698 -1.526191 11.154422 -1.621724 9.221511 -15.074033 -0.178700 2.722900 -7.508300 8.800153 2.223603 3.629771 0.785056 2.664951 -1.981854 -1.063957 1.928866 9.109884 -9.240062 -2.151040 -19.462362 -0.770825 -0.920205 9.763957 2.222900 -1.746500 11.978900 -5.269319 -5.228541 0.368883 -77.131640 4.276617 32.641612 13.385412 -23.965524 -3.934959 -0.714348 -1.739735 1.598692 13.655896 28.985444 7.428100 -7.125000 0.000000 0.000000 -19.920200 60.365500 -7.643100 5.039042 5.123099 1.257023 69.714760 -5.938667 45.327376 -27.248944 35.150730 -10.011195 -0.570617 -0.218481 -11.053188 -21.121608 18.169678 -6.723400 7.125000 0.000000 0.000000 4.947400 -10.526400 3.975600 
10.770440 17.307674 -43.093682 -4.949246 -8.872400 5.609270 14.363864 4.939983 3.273700 -22.933884 -15.650861 -42.978982 2.341685 14.414884 36.337466 0.504208 1.245385 -11.894786 0.603000 -4.970700 -13.825200 -19.812985 -7.457444 -5.477178 49.178589 -2.838377 14.379260 0.974862 -1.277509 10.499350 -1.540089 9.156953 -14.502253 -0.148000 2.478700 -6.830700 8.957946 2.255921 3.553953 0.761306 2.689048 -1.907454 -1.208150 1.967356 9.538771 -9.179180 -2.175927 -20.368798 -0.700603 -0.897927 9.882690 2.250000 -1.730000 12.270600 -5.281760 -5.283802 0.393939 -76.833386 3.657094 32.867019 13.288626 -23.810513 -3.909453 -0.743854 -1.772901 1.026524 13.792673 29.656673 7.676000 -7.125000 0.000000 0.000000 -20.275800 61.052500 -8.118900 5.055019 5.171007 1.263708 69.816690 -5.436845 45.177080 -27.410757 35.255046 -10.101809 -0.571714 -0.224141 -11.144409 -21.249014 18.165587 -6.768300 7.125000 0.000000 0.000000 4.865700 -10.508200 3.911200 
10.776297 17.306628 -42.989823 -4.774047 -8.525564 5.618607 14.366417 4.920492 3.316555 -23.311408 -15.945291 -42.950236 2.233903 14.301032 35.918020 0.511813 1.202652 -11.925524 0.731900 -5.465900 -15.242400 -19.749197 -7.450000 -5.622621 48.701082 -3.570899 14.835906 1.013193 -1.088985 10.055858 -1.492724 9.164298 -14.132537 -0.163500 2.604800 -7.180300 8.812709 2.178487 3.497937 0.739428 2.573814 -1.872881 -1.256082 1.915034 9.775157 -9.096181 -2.130122 -20.929933 -0.734539 -0.815604 9.912380 2.212900 -1.690100 12.409300 -5.283429 -5.319967 0.407317 -76.687334 3.409854 33.028863 13.294990 -23.811631 -3.928812 -0.753902 -1.804985 0.657978 13.715168 30.240389 7.775600 -7.125000 0.000000 0.000000 -20.843000 61.601400 -8.629400 5.068999 5.186441 1.266931 69.772160 -5.186387 45.221789 -27.453834 35.265602 -10.108240 -0.581562 -0.200337 -11.249802 -20.550197 17.831921 -6.394900 7.125000 0.000000 0.000000 5.304800 -10.982700 4.215600 
10.779016 17.293241 -42.925082 -4.914223 -8.734025 5.764639 14.348063 4.914428 3.343499 -23.149013 -15.996613 -43.228895 2.126587 14.193766 35.490010 0.454492 1.603556 -12.030596 0.717000 -5.411100 -15.084800 -19.744553 -7.421790 -5.659877 48.728562 -3.663304 15.159219 1.083286 -0.897551 9.566120 -1.470206 9.040945 -13.974592 -0.291900 3.474200 -9.601800 8.778851 2.268761 3.827293 0.738697 2.743916 -1.919520 -1.174023 1.981076 9.566716 -9.373907 -2.187405 -21.199861 -0.493734 -0.760366 9.950296 2.427000 -1.670500 12.552200 -5.287748 -5.336702 0.397290 -76.662990 3.289897 33.045466 13.251507 -23.740397 -3.922477 -0.763552 -1.827423 0.665324 13.468062 30.779458 7.760900 -7.125000 0.000000 0.000000 -21.587100 62.057400 -9.186700 5.046968 5.238852 1.267330 69.775665 -5.210553 45.171015 -27.555615 35.347860 -10.175270 -0.608370 -0.192360 -11.186990 -20.146460 18.125589 -6.341500 7.125000 0.000000 0.000000 5.602000 -10.742000 4.481800 
10.784350 17.287697 -42.830113 -5.089692 -8.885653 5.969399 14.316475 4.900536 3.380218 -23.044596 -15.964511 -43.515510 2.034399 14.089359 35.099399 0.420771 1.810897 -12.011801 0.693300 -5.322900 -14.832000 -19.741142 -7.390909 -5.725743 48.665237 -3.877650 15.693036 1.174836 -0.590994 8.808656 -1.342724 9.046847 -13.006614 -0.206700 2.927600 -8.077300 8.756920 2.306068 3.512643 0.801012 2.757297 -2.013090 -0.905565 1.943068 9.250881 -9.716562 -2.109231 -20.058905 -0.292578 -0.621755 9.833045 2.655200 -1.612700 12.198000 -5.294315 -5.228525 0.359465 -77.030950 4.058255 32.621230 13.169255 -23.715757 -3.897706 -0.733965 -1.841649 1.103933 12.868168 31.051079 7.459100 -7.125000 0.000000 0.000000 -22.548200 62.167000 -9.676600 5.009735 5.166860 1.261631 69.643437 -5.935799 45.532964 -27.605577 35.472565 -10.243072 -0.612911 -0.206230 -11.089746 -20.734420 18.852120 -6.800700 7.125000 0.000000 0.000000 5.268600 -9.886300 4.304500 
10.792299 17.285919 -42.723849 -5.325034 -8.516169 5.829257 14.328164 4.867420 3.373174 -23.030041 -16.154645 -43.354524 1.963668 13.976443 34.763347 0.387400 1.926392 -11.713536 0.673500 -5.247600 -14.616200 -19.679449 -7.354319 -5.958137 48.481779 -4.923818 16.688142 1.317536 -0.180769 7.780705 -1.193302 9.160317 -11.806442 -0.059300 1.571600 -4.323200 9.261734 2.392469 3.591457 0.693268 2.853184 -1.705726 -1.468054 2.096517 10.506457 -9.362719 -2.470531 -22.240972 -0.235325 -1.062120 9.925386 2.570300 -1.752800 12.787800 -5.344905 -5.364955 0.454929 -76.281715 2.390578 32.891245 13.135714 -23.530411 -3.873440 -0.759108 -1.841865 1.334479 12.480197 30.818619 7.205400 -7.125000 0.000000 0.000000 -22.737100 61.864800 -9.599600 5.065832 5.307933 1.292521 70.183210 -4.325128 44.559786 -27.293875 35.083441 -10.011846 -0.604809 -0.214174 -10.931103 -20.300541 18.102439 -6.396600 7.125000 0.000000 0.000000 5.501500 -10.718200 4.403200 
10.803700 17.291881 -42.612355 -5.418002 -8.359361 5.575486 14.278861 4.821286 3.501516 -23.031078 -16.323827 -43.120777 1.919660 13.862673 34.506524 0.387046 1.893072 -11.589235 0.689000 -5.306600 -14.785100 -19.602090 -7.238189 -6.161309 47.910987 -6.077075 18.421438 1.579402 0.767337 5.425420 -1.023460 8.924489 -10.387695 -0.015100 0.794500 -2.183500 9.220273 2.198769 3.526933 0.778995 2.628188 -2.187866 -1.209844 1.886917 8.357803 -9.465323 -1.838742 -17.422167 -0.156310 -0.572773 9.534545 2.767500 -1.534600 11.354300 -5.355855 -5.016443 0.316951 -76.846756 6.070217 32.546391 13.303545 -24.070582 -3.944742 -0.679460 -1.819751 1.476302 13.192402 29.968425 7.383500 -7.125000 0.000000 0.000000 -21.311700 61.233400 -8.646900 4.922257 4.997187 1.221900 70.116740 -7.508995 45.871142 -27.526892 35.516784 -10.185703 -0.600109 -0.157095 -10.819437 -19.996351 18.025736 -6.250300 7.125000 0.000000 0.000000 5.683100 -10.898100 4.529100 
10.811544 17.287802 -42.505987 -5.474688 -8.369985 5.649574 14.254600 4.760882 3.511707 -23.010622 -16.414115 -43.152487 1.876791 13.789009 34.286891 0.391775 1.793122 -11.352537 0.638200 -5.111100 -14.225600 -19.505298 -7.112536 -6.428814 47.315611 -6.943411 20.021427 1.818163 1.759607 2.955575 -0.881687 8.303476 -9.260186 -0.012700 0.726900 -1.997800 9.290754 2.278089 3.499887 0.735783 2.708675 -1.941378 -1.315950 1.954708 9.542213 -9.798193 -2.203723 -19.756224 0.131781 -0.747068 9.775974 2.977100 -1.616600 12.100700 -5.381290 -5.147119 0.371829 -76.573928 4.461738 32.632950 13.294583 -23.892884 -3.916755 -0.714489 -1.785486 0.968683 13.720958 29.342952 7.558100 -7.125000 0.000000 0.000000 -20.141300 60.752000 -7.918200 4.964565 5.131793 1.262172 70.028577 -6.109868 45.463166 -27.664529 35.557961 -10.268319 -0.614069 -0.180263 -11.006024 -20.200362 18.408883 -6.450300 7.125000 0.000000 0.000000 5.584700 -10.450900 4.501000 
10.816564 17.279435 -42.402128 -5.417766 -8.157996 5.595469 14.240718 4.753565 3.566380 -23.176292 -16.632100 -43.116689 1.836544 13.741955 34.121492 0.364285 1.858779 -11.013190 0.549600 -4.749300 -13.194900 -19.488353 -7.091515 -6.491288 47.019217 -7.441189 20.340315 1.824318 1.761753 2.983855 -0.843865 8.048196 -9.043631 -0.023700 0.994400 -2.733300 8.989301 2.119609 3.545672 0.828554 2.517440 -2.089870 -0.913083 1.788698 8.904713 -10.117239 -2.077074 -18.642962 0.205467 -0.555638 9.767172 3.097500 -1.562600 11.840100 -5.356521 -5.066890 0.313309 -77.142285 5.378295 32.064044 13.242735 -23.897498 -3.896627 -0.700118 -1.769626 1.276006 13.783680 29.289497 7.565800 -7.125000 0.000000 0.000000 -20.049000 60.703000 -7.856700 4.930480 5.060364 1.249239 69.633972 -6.988814 46.202805 -27.820649 35.730874 -10.350563 -0.593741 -0.149063 -11.199440 -20.044384 17.776239 -6.182400 7.125000 0.000000 0.000000 5.632200 -11.164700 4.457200 
10.821166 17.282154 -42.300361 -5.510996 -8.125024 5.790174 14.268227 4.741064 3.537996 -23.179839 -16.738605 -43.214112 1.809742 13.730039 34.034333 0.341281 2.001511 -10.997117 0.527400 -4.653800 -12.923700 -19.456470 -7.083113 -6.568241 46.929568 -7.662782 20.507978 1.827602 1.761839 2.998336 -0.779957 7.957290 -8.529348 -0.036100 1.226300 -3.371700 9.201926 2.373975 3.537617 0.673490 2.832789 -1.808400 -1.449590 2.043012 10.222196 -9.711320 -2.530555 -21.417631 0.285965 -1.086426 9.991736 2.998000 -1.743800 12.695400 -5.404178 -5.260456 0.413080 -76.306658 3.202657 32.346306 13.049431 -23.480967 -3.820003 -0.759684 -1.790910 1.455502 13.407014 29.885251 7.519800 -7.125000 0.000000 0.000000 -20.894600 61.192700 -8.448900 4.981240 5.239268 1.275142 70.253226 -5.262576 45.044959 -27.632359 35.466595 -10.249755 -0.601962 -0.228631 -11.228934 -21.122621 18.829000 -6.945500 7.125000 0.000000 0.000000 5.012300 -9.830600 4.099000 
